# xmcd
#
# Track frame offsets:
#	150
#	15388
#	30645
#	50683
#	66468
#	81249
#	99151
#	111498
#	124936
#	138624
#	154836
#	168572
#	181470
#	196410
#	208752
#	222967
#	239495
#	255139
#	268937
#	282531
#
# Disc length: 3977 seconds
#
# Revision: 1
# Processed by: cddbd v1.5.2PL0 Copyright (c) Steve Scherf et al.
# Submitted via: audiograbber 1.83.01
#
DISCID=340f8714
DTITLE=Various Artist - BALLERMANN SILVESTERHITS2012CD1
DYEAR=1900
DGENRE=
TTITLE0=DJ Ötzi - Ein Stern, der Deinen Namen trägt (Radio Mix)
TTITLE1=Jürgen Drews - Wenn die Wunderkerzen brennen
TTITLE2=Hermes House Band - I Will Survive
TTITLE3=Heidis Erben and Mickie Krause - Oh - du schöner Westerwald (Eukalyptusbo
TTITLE3=nbon)
TTITLE4=Norman Langen - Pures Gold
TTITLE5=Axel Fischer - Amsterdam (Rosen-Mix)
TTITLE6=Daniel Lopes - Ai Se Eu Te Pego (Radio Edit)
TTITLE7=Der Checker - Unf+++ingfassbar
TTITLE8=Willi Herren - Meine Nachbarin (Geil Mix)
TTITLE9=Die Atzen - Feiern? Okay! (DJ Antoine vs. Mad Mark Construction)
TTITLE10=R.I.O. Feat. U-Jean - Summer Jam (Video Edit)
TTITLE11=Picco - La Maquina (Original Radio Edit)
TTITLE12=Loona - Policia (Radio Edit)
TTITLE13=Michel Telo - Bara Bara
TTITLE14=Glamrock Brothers& Sunloverz - Push The Feeling On 2K12 (Glamrock Brot
TTITLE14=hers Vocal Edit)
TTITLE15=Vodka and Raki - Marihuana (Video Mix)
TTITLE16=WTF! - The Sway (Radio Edit)
TTITLE17=Ina Colada - 7 Tränen
TTITLE18=Die Autohändler - Alte Freunde
TTITLE19=Die Frechen Engel - Marmor, Stein und Eisen bricht 2012 (Radio Version
TTITLE19=)
EXTD=
EXTT0=
EXTT1=
EXTT2=
EXTT3=
EXTT4=
EXTT5=
EXTT6=
EXTT7=
EXTT8=
EXTT9=
EXTT10=
EXTT11=
EXTT12=
EXTT13=
EXTT14=
EXTT15=
EXTT16=
EXTT17=
EXTT18=
EXTT19=
PLAYORDER=
